<mxfile host="Electron" modified="2024-01-22T09:03:04.023Z" agent="Mozilla/5.0 (Windows NT 10.0; Win64; x64) AppleWebKit/537.36 (KHTML, like Gecko) draw.io/21.2.8 Chrome/112.0.5615.165 Electron/24.2.0 Safari/537.36" etag="Rc18OalH8QEyY26IK3kh" version="21.2.8" type="device">
  <diagram name="Page-1" id="2XWkQP5S-hDbL94sL5Vg">
    <mxGraphModel dx="1418" dy="820" grid="1" gridSize="10" guides="1" tooltips="1" connect="1" arrows="1" fold="1" page="1" pageScale="1" pageWidth="3300" pageHeight="4681" background="#999999" math="0" shadow="0">
      <root>
        <mxCell id="0" />
        <mxCell id="1" parent="0" />
        <mxCell id="3pHWxRE9ohbV94NL8Lfb-2" value="&lt;font style=&quot;font-size: 20px;&quot;&gt;Element hierarchy&lt;/font&gt;" style="rounded=0;whiteSpace=wrap;html=1;fillColor=#f5f5f5;fontColor=#333333;strokeColor=#666666;" parent="1" vertex="1">
          <mxGeometry x="920" y="450" width="260" height="60" as="geometry" />
        </mxCell>
        <mxCell id="3pHWxRE9ohbV94NL8Lfb-3" value="Rectangles&amp;nbsp;" style="rounded=0;whiteSpace=wrap;html=1;fillColor=#dae8fc;strokeColor=#6c8ebf;fontSize=20;" parent="1" vertex="1">
          <mxGeometry x="920" y="230" width="260" height="60" as="geometry" />
        </mxCell>
        <mxCell id="3pHWxRE9ohbV94NL8Lfb-5" value="Item as a container" style="rounded=0;whiteSpace=wrap;html=1;fillColor=#d5e8d4;strokeColor=#82b366;fontSize=20;" parent="1" vertex="1">
          <mxGeometry x="920" y="300" width="260" height="60" as="geometry" />
        </mxCell>
        <mxCell id="3pHWxRE9ohbV94NL8Lfb-8" value="Text" style="rounded=0;whiteSpace=wrap;html=1;fillColor=#ffe6cc;strokeColor=#d79b00;fontSize=20;" parent="1" vertex="1">
          <mxGeometry x="920" y="370" width="260" height="60" as="geometry" />
        </mxCell>
        <mxCell id="UFmpfBxDAyC2Uw0uGnrw-1" value="" style="shape=image;verticalLabelPosition=bottom;labelBackgroundColor=default;verticalAlign=top;aspect=fixed;imageAspect=0;image=data:image/png,iVBORw0KGgoAAAANSUhEUgAAAoIAAAIECAYAAACNGU/QAAAAAXNSR0IArs4c6QAAAARnQU1BAACxjwv8YQUAAAAJcEhZcwAADsMAAA7DAcdvqGQAACPvSURBVHhe7d0JvFx1efDxZ+ZuWYAEEEEUEQkIirKoRTbLpq222r7aWn217q22ffW1vtatVaq22o++1qXa1rbqaxWrdtGWt5srIlIRSsAFKCGbskpCbkL2m3un5z9LMrnMXbPn+X7hkDPnnJk5Z+Yw88s5c+fWTn3qrzde8CtPjIWNiEb5p1FGGjHW/HNNLF+xMI5/5NL4xsf+NZZE25FPief90lkRi78QX1i6KH75uWfFwvasbsM3fiH+9rur2pfaqut2li/3t7PlsXLlCXH88cvjyr/4t7i9PXW8RU9/dVxYlvnLiZfZ4eR42vMuieMXtC6VzdrJ2sXxxS98J+5vX5zI+Kvt33ZhbffBhh5Yj+2+4BEik1r7TyYy60do71/xgFLbpc3c/x6j1va01mvHaPfl9vhvf/RjjUeVOlpzfXz1378dt5Vuqy4fefIz46ILHxULypvQ8A3NWFrdvEpl0c/GKy86IYbXDkcctjAWrK2i7GvXx9LV5coPiROf/stVqFWjK78WH//ybc2rtJwcl/5aFWXV2NqVi2Pxf34nbm/f6JEn/Ux1fydU91cZXhxf+ttrd9zfTk6KS19xUTzyR9+IT3xle5pOoL1sDMePblocNyxbEvevbr+pHnlSPPGii+IJ1R2u/OZfxNenKMo8b8Wz3NIkD1Ce/QCYjtZb6V426zvdJ2u71+2bh2d2V95zd7ljZnOsE32tC83xooz1veCZP//7jWX/Hn/2D4tj9cZyRLA1c+PqJXHz2iPijEceFmP33BzfXrrjmNkRjz4rHvPQoRgaHIpNN/5dXP6V78X9mza2526M+9fU41GnHB2Dw8ti8bIdOXfipb8Uj1/QiOEVX4u//8pNcX/nKpVNq29v39+CGL716rjhrq6Z3Y48MZ7wmKNj0/Ib4paJlmk78dLnxGmHLY+rvvhPcf3S1bFpU3tGsen+uOueaj2r2xpauyJuubt7Zi+7kADaaj90AD26B9iOYL/dM3a8dB/k9smGpnl097pZP7K79JTs/edzf9zO5tyuw5ydCGz/0flP1D74zlc0vvDZa2J1VYD9AwMxf/68GBwYjMGhweg75glx7slHxP23fStu/Ulz+aajTr0gTjoi4v4lN1TTN7Sndpn/qDjj9EdE3Lk4blzZnt+eNnfzHXHTDSuqXCxvGOPeMo46Nc456chYs+TquPW+9rTxyjKLqnW6/dvxXxMt03RUPOack6NazSltuvPGuPFHPbZjXzug3lH3/soKDmBf2/E2uzftm3udlQNoVfeFdpbtGdVNj46OxpYtW2Lr1pHYuHFjbBsZqaa37nN7GL79JRc0Pv+d++LQQw+NBQsXxOrhB2LT5q2xubrSyLbR5sIAac3obxze9Rivs09MtCPZZ9hzBvr7Ys7QQMythocccWgMD6+NB9at61Rg84/ai849pbGs9pBqF63H3avWxNaRbc2ZAGnstsPL3tQZb7IQtL+w9wwO9MfDjloY/X2N+MlPdpxSrffNO7QZgSvvvk8EAkypvHl7A2c67CfsP0rjrbxrVWwbrTXPAje/JaYU4GEPXdA8EghAx0Rv4N3TvckzkbJvTLV/2H/YN+6+bzgWLlgQA/39zR8Qrq/cPNeRQODg1fpL78QeNK/zBj3+zbzXG3dnmfHLktNk+4H9g/1Dab5Vax6IefPnNS/X71s11demAByAxgfgVJeber1ZT/bmDjNhP2L/sGnLSPMbYsohwfq9q3p/bTPAAaln4HWZcL43afYGf7Fg39tcheDQ0FDzpbB27KNPnewlMw47ZH7zx49nqnz1zLr1++F38wEHpwlfyTpvuhMt4E2Z6Ri/n/Tan+xLeU1n/9i/PG7Rw2PFyhVTh+AH3vueOHHRoval3mrt76O5855V238zyYZ1q+P1b3xz1Oszj0iASU37NXaqF2dv3Exmqv2je3+yL+U21WvN/uexi46NFStWTh2Cn/zYR+OpF5zXvjR9V1/znXjRy14ZfX397SkAu8GMXl+FIDNhfzgYvOuyt8RLXvT8qj96H4gqv23jU5/5XLztHe9pT9kddj0Er/n6/483vOUdcc2117Wn7Ozcs58c73v32+O8S57VnrJrWiG4IurtyxPq66vHyh/9JD50+bfjw39zdfzJ578VH/m7q+KjX7wyli+7IzZteCDuu/ee5rBx/QPx6X//XnOYrj+47HfjzqU3bx+u+Lu/ac9p+cF/XvOgaR1Xf+1fm0NHuf5kzn7yE3e6r+7rzsQrXvKi5vXL7U1HZ/nuoSjbPtG27a96bUv5ywLsNuX1c6LX0Jm/tsI0icCDRYnApz3zuXHqGef0HJ566bOay+xvSgR+5IN/1Ay+8cq0Mu933vrO9pTpKvt1Z+htyhBsXr3WF8vXro8VDzwQKzeuix9vWRt3jAzHyMhYNBrV0P6no29wer+argTELz775+LhJz52+3D44QsfFGhnnXn6g6KrXD7hUce3L03fmuHh7fe1Zs3wrCLm45/6TPP61173n+0pU1u+YuX2+y3D/qJs/0wfg/Hb8uQnnTnrqIaddIfe+CAUgewRk79JcuApRwLvvvfeWLfugZ7DipU/mvBo4ezt+gtUORL4v1735gfFYCcCy7ydjxZ29t2J9t/x03svO2UIjo61Nu6oI4eiNrgt1m5bF/dtXh33bmr9epLauG2fc/jmmPeQje1LEysh9/RLL4rTnnhue0rL+Zc8IxYuXNA88tRxw+Kb4tWvfHn7Uku5XKbvilWr72+PsSvKczj+OYPdprzGzOo1tteLY/e0XvM5+HXeDDsDue2pfWCi2518vxsfg5NHYLeZbMfOy04Zgp3X31vuvSOWD98dw9vWxKZ4ILbW1jenN9q3V2vf8PyF62PeIa15k3nWM3+2eWSpl+XLV8b5557TvhTxpSv+uXnUqVuJyDJ9V5Tb/PO/+kRzfPwpz3LatqN7egnYMpRT1h3dp7e7p89UOarWuZ3OUbrOfZXL3bffWa771HJZtjO9DOVyUZbpXsfO0btym+VxLENn+c79lGEmp63Lc9Y5Qjvd9Sjj3ffXWa7onj5+HgepWcXeRCZ7USzzJpvPwcvzTrfO/rA79ouZ3sbEy3fH4PQisKN7+lTrs2P+tE4NF5uq8BuYOxIDc0aif2hrDFRDU/Xi3YnA4pSjjotFCx/dvjS5cmq2l/FH6n5w8y0xPLx2+xGnEhBf/uo3muMzdfjChdvjosRL5/Ru53RvGZ7z/F9tnrIuSrx88q8v3z5v/Ongsi7dp7fHH+HsKJHUud9ep1HL/Vx51dXbb+ekRY/eHj9lnYsyvTwO5TY6y3WfNv+Hz316+/SyDe//oz9oTi9e9uIXbp/XOXr3slf9VvNxLEOZXpQ47iz3rF96QXPadJTn7OHHHtscn856vP2d726OF+VyWYffe9MbmpfLY9q9HmXZcpsAszfVGyO93LnsB9Ma9l/leZ/Ocz/d5XqZ7vX29HoUM7/+lCHY0QzAahgYKkNXCFb31/0X+UWHn9gcdsVDjjyiPbZDibFOOJTw6hzJm6nuzwje9P0f7BRlnSNy3dFRlin3O9Fpz9Mff1p86Z+mPjLZ/bm6cvp7vBNOOL55P51YLOFYjpoWZZ1LtBVLbl+2UwSX2z3tsaduX7/O9cs2dH+Gsjx+Hd1H77p1IrdXqE6lPGd33nXXtNejhHfR2a6rr/mP5udDi/GPaVm2bOdEzwEHoPFH//ba0UBy6LwZdg/MxsMffdq0hv3fdPeBme4vky3bPW/6t9l9Orj7NPFuV153q2HaIdiKwFYADpY/B1sh2Gh+cWDnVbwRW0dGYtOmze3LE7viX/6teTSrlxJF40OvxEA5klWOFpWjYjP5QY2JlHUot1mU+OkckStHsTp+7x1/2JzWibQ9eYqy3G8nFstQ7nsmxv8QRxlmqhzRLLFWtnUmp4bLc1kez2J3rEcv5cgwB4Dul4RedrxcTL0swKyNj6+ZBt5Mlp/IZLczfnqtHYHvqQLwLXHNtdc/6DODu2eddjZ1CFb3uWXLpjj7ISfGkw4/Kc467OQ4Y/6p8YS5j2tOby3SWrHShGNjYzFaDVMpIVd+2GP8Z+pKkHWfsu123fWLm0HWfXRrV5QjbiUqO0rAFON/MKUoR/HK+naO0nWUI4ad08i7omxz59TobJRQLkfeZnrUrBzFG38EttxWidIS5NNRorEcpSzP2WzXo9v4x7TcVgn23RH/7GHdUdcr8PZ49O3+F0kONPaB7Mr3BB5x+OHtS+PV4phjjm4uMz1lf9qT+1Tn9sdHYOczgbVmEJZpe+rI4JQhWJru1MccF6+66NJ41U8/PX7tgmfEKy94drzivF+IUx7ziJg3b3489KFHxRFVTAwMDjRDsF6f3oNWPoNW4q5zGrEMJSIm+iGQchqxnCYtsTGR7tsqRw/H6/6MYImNzmnacjTwnW9/a3N6dxiVo2Kd5cupy/FH6crl7m2Y6IdFynZ1linD+FAqj0UJr+5lZqp8lq6zDWWYzhG9zpHZsvxLf/V/br9uOaX7gQ//aXupnY3flubn/dqneIvZrEe38Y9pua2JPnvJfmSq8Jt2BE71wrvjhfPBA5Bd+bLoq756Rdy57Ps9h+9+68vVMp9vLz1dvV5jdt9rTvkNbe9799vGReAOrSODb4n/+563t6fsPlP+ZpHXveY34szTe5/CLer1enModd06Tdzyve99P973gQ9FfYa/WaQEUnnjL8pRKUeB4AAw7cgrul88x19x/AvrVPOhm/2DYk/vB+V1afffR4nB7o7a0x574sOav1lkyhAsK9UYqyKvfXm6ykNUq/dt/z3EwEFsRi8Q3a8J4684/vViqvnk09kHeu109g/sA9PVCcGpvz6mCrlyVK/8zuCZDOU6IhCAPWP8+4v3G5iNaf/UMMCu82bNrhB/sLsJQQAOcIKQwn4wG0IQmFz5KNZknwGcbN5Oer1Id0+baH73AOPZL3KZ6PXAfjBbQhCYWHfk9Qq+nhHY/ULdeXGe7EW6ezmYaH+wjzB+H7BP7A5CEOhtqvCbMALH82LNdHXvK/abPMpz3T30MtPpTEd5GReCwIOjrmfktZV5045AmK5e+09nmn3r4DXZ887eIAQhu07UdQKvZ+TB7lTe6McPE5lsHgev7v1iqn3APrIrhCBkttuizwsx02VfoWM6+4L9ZU+rNfbm7zMBAGCfe9rTnh7Lp/ObRQAAODgJQQCApIQgAEBSQhAAICkhCACQlBAEAEhKCAIAJCUEAQCSaZTfKNBoCEEAgKyEIABAUkIQACApIQgAkJQQBABISggCACQlBAEAkhKCAABJCUEAgKSEIABAUkIQACChRjUIQQCApIQgAEBSQhAAICkhCACQlBAEAEhKCAIAJCUEAQCSEoIAAEkJQQCApIQgAEBSQhAAIJvy++Wq/whBAICkhCAAQFJCEAAgKSEIAJCUEAQASEoIAgAkJQQBAJISggAASQlBAICkhCAAQFJCEAAgKSEIAJBRQwgCAKQlBAEAkhKCAABJCUEAgKSEIABAUkIQACApIQgAkFStUWmPH9BqtVp7DACm7yB5G4QZufTSp8Xy5csPrhDcsOH29iUAmNr8+YuEICl1QtCpYQCApIQgAEBC5Vi4EAQASEoIAgAkJQQBAJISggAASQlBAICkhCAAQFIHzRdKx0Hym0U2TvNLsee/b1F77MC24Xemub3zT2yPHdg2bFjaHpvcvINkezdOc3thX/GF0mRVvlB6mS+UBgDISwgCACQlBAEAkhKCAABJCUEAgGQazd803BCCAABZCUEAgKSEIABAUkIQACApIQgAkJQQBABISggCACQlBAEAkhKCAABJCUEAgKSEIABAQo2GEAQASEsIAgAkJQQBAJISggAASQlBAICkhCAAQFJCEAAgKSEIAJCUEAQASEoIAgAkJQQBAJISggAA2TRafwhBAICkhCAAQFJCEAAgKSEIAJCUEAQASEoIAgAkJQQBAJISggAASQlBAICkhCAAQFJCEAAgKSEIAJCUEAQASEoIAgAkJQQBAJISggAASQlBAICkhCAAQFJCEAAgKSEIAJCUEAQASKrWqLTHD2i1Wi02bLi9fQkApjZ//qI4SN4GYUYuueTSWLZ8uSOCAAD5VH8Bqv4SJAQBAJISggAASQlBAICkhCAAQFJCEAAgKSEIAJCUEAQASEoIAgAkJQQBAJISggAASQlBAICkhCAAQFJCEAAgKSEIAJCUEAQASEoIAgAkJQQBAJISggAASQlBAICkhCAAQFJCEAAgKSEIAJBMoz0IQQCApIQgAEBSQhAAICkhCACQlBAEAEhKCAIAJCUEAQCSEoIAAEkJQQCApIQgAEBSQhAAICkhCACQTflFw9V/hCAAQFJCEAAgKSEIAJCUEAQASEoIAgAkJQQBAJISggAASQlBAICkao1Ke/yAVqvVYsOG29uX2PfWRv1r343ahvbuddLZMXrqgtZ4pXbL1VFfsrF1Yf4JMXbJSa3vtpyOzYtj4OJfj/4fVdc49PzYetUHY/TQHtOOai8/G43hqH/9+mr9x1qXjzszRs9s32CZ943rora+s21PqbbtsNb4xjui/s1bojZSzav1R+P082LskUOtebui1zZPsH21f35TzHnFVyL66tF48Udj83vOrqZW6/y1ap07z8fRj4vRsx/eGofE5s9fFAfJ2yDMyMUXXxLLli9zRJA9ZXPUP/qmGHrBb1bDm6P/hi3t6W3XfSIGm/N+Mwb//IftiTOwcW3U1gxXMTbSnlDpNW22anMivvnH7fX/rRj8yPei1p4VwzdE/6tb6z70gtfGwBd+1J5RuffKGHjpb7TmveaLUZu7GyKwY7rbN1bNf2Bd1Iar5Td33uC2Rv3P39xe59fEwD+vak8HIDMhyL63X/5tfE40zj89Gs36a0Tthz+I2tbmjIjbvhv1ezrrvC3q37kxau2LtR8ujvr61njjsU+JsSNb4/tefzTm9LXHq//t5w62xwHITAiy/xl9IGpX/kMMvO0dMfhbb4/Bd18efTcPt2fOwtZVUb/i8hh482Ux+Np3xsCH/jH6lm1oz5xY4/FVyB3evvDjH0Z9dRkZjfp/XB/10ebUllury/eXka1Ru+6W9pHDgWicd2Y0Ov+HTWcdtvwk6ld+K/q+clX0ffW6qK+tpq2/O+pXfTP6bm+fRu9l7dLo+6sPx8Bb/jgGPnN11NZua8/oVkXgUH97XAgC0CIE2TvG2p+1a6rGxyY4CvjjL8fgeefH3J97Ywz88aej//99Nvr/8LIY+qkLY85bv73j9Ox03fI3MXTmU2PO8y+LgT+5PPo//tcx8Nb/E0OnV9Mu+4/tR/J6eujjY/SUua3xdUuiflsJtyrorlremtax6ofRd+umqhzvi/oNd7Wm1Y+JsfMf2Rqf7jo07oi+335lDP3iy2Po5X8ZfZ96U8w58adjzjNeH/2Lx51a77jp49XtPDOG/ncVgh/+0xh41Utjzqv/tcfjVEXg3E4I9kVjjhAEQAiyV6yPvrc9L+Y+7sL2cHEVQNc/OFY23xwDv/qG6P9+FVwLT49tH/lEbL7ij2LbEw+tIml91D/y+zHwramP5G23/voYePG7om9FOac7NxrPfGmMvP45MfbQvipE10b9/a+Lwc/d3Vq2l75jY+wpj2iNj1UBeNM9EWt+GPXvr2tOajzhca0jfmN3R/3aO1qxeGv7vPCRp8XoYw+Z+Tp0TpPff2UVi38f9fUloCfI3403xsCvvz/67msfnjy2CtdfeFqMLqoerwepR2PuQHu8uu95nXEAMhOC7AVVzNx3V9RW3LFjWLWpPW+H2tWfif7ryynQOTH22++OrS97aoxd/NwYeeezW8E1ujL6rri5uex01L71+ei/pfXBvsaFb47Nn/u9GHnXe2PLJ34lGuXjco3V0fdX/7Lzad6dzInGBWe0Pye4KWo33B61/7o26veWWJsfY894Row1f3J3c9Su/UHUln4v6u2fweh8PnDW6zDnmBh70Wtj66f/Mrb8/bti22M6R/N2qH27uu0ftj+4eOorY/PiL8aWz/5ZbH3XhT1+Aru6s+1HAcv4g28PgHyEIHvBITH2/FfFyBt/c8fwvFPHxcq2qF1fxVRz4taof+jlMffk86vhgpjziiva06ug/PE90zw9XN3e4lvb1yuf1zurFV6VxuPP2fHZvyreapN8/LD7c4K1mxdH39duaEXb4PEx9nNPi9HHtY6+1b5/TfRdWd1Ws8s6nw/chXWY/4QqGF8b255zUYz+7DNi9Anjj/KNRu3Gzm33x9izfz7GDmnOmED1v/r2o4BVBA61VwSA1IQge0E9Ghe/JEYue/32YdtF478Eb1vE2s5RwqpuRqqi2jrSGkariHrIkc0hBrs/aziZqtbWdz5XV13/yK5KGjo0GnPbOTmyacdPA/fS/TnBO78ffVcva40fe2aMPaaKwQtOaF2+9wdVJC5pRWr96Bg7r3w+cDetQ0/V4zXc+QGSwWgcveM7Gnur7mte56ts+qr7dkQQACHIfmOgiq5OzAzE2Gs/FZtWXLvzsLIaPvUL0/zi6Sp0tt/elqjd3XXIbeOaHV+sPO/waMxrjfZUPid4TvtzgsPXRt9V5Ud5q1Q96ykxdkh/jJ3/xBgrB9c2L4m+K+9szosjq3h8XIm+3bQOPVW3ffj89nh123etaY9PpIq/n3phbP3AO6rhNTF6vBAEQAiy3+iLsaeeF2PNg1Zbo/6x90f/DZ1wqoJp3cro++AbYui9N7anTaW6vXPPjrHmx+JGo37FP0XfcDmauCXq//jF9te9lKA7N8YmPZhWvk+w8znBjvnVuj6+FaSnnhNjR+80s+v7A3fXOvRShd0Zp7TXq7rtv/1k9N9SPV7r7oj6Tb1+AGYk4hFnxujF51VD19fiAJCaEGT/8cSXxcjLT26Nr/pmDD717Jj3sJ+KucefFfOOuzSGfveKST/P9yBPenGMPKf9a9Ru/WQMnXROzK2GOa+/qnUK95CzYtubnz7lEcadvk+wKJ8PPPvo1vjhp8XYGd0VNxCNc6tw7PyftZvWoZfGOc+Lbae1fwBk5RUx+KQnx7xjL4yh91zX43OU90ff654bc0+/tBp+JoY+/F/t6QBkJgTZcwarSBkYiOivhvq41Kn3V/PKUM0b7OyGC2P0vZ+Nze//HzF29FBVOqMR6+6P2qoHIkarZR5RRdep7c/Z9ZXrVUNfV/KMn1Z/aIz+6V/HlldVYTZYTdu4Omp3ratuty8aiy6NkS/9RYyc2f7832TK5wRPW9i67TIc/6QYe3T1Z9ORMXbhSdVNVtvSnH9sjJ1/fHteZabrMDSndTv9Pf7XHL9988+IkY+9MUaP6/w0cDV90c/HyNursCzr03zs28sW5XJzWnleuqYDkFatcZD8tu1arRYbNtzevsR+YbQKuc4XR5cw6W6bsWreaHtevW9H3HQ0tkXtvnuqCFxfzZsbjaOOjsYRVSS1ZkZsq65frl4979FfPqTXa1qXTWuituLOqG2oVuJhx8XYsYc2u2nayvp2fk6lXt1GvevKJVirf7frq+67121PuQ7Vyo9Wd1IeswdtwyTbt2191JbfFbX+o2Ls+HLosqxPWbBS1qWzrpNtAyQ1f/6iOEjeBmFGLr74kli2fJkQBCAvIUhWJQSXLlvm1DAAQFZCEAAgKSEIAJCUEAQASEoIAgAkJQQBAJISggAASQlBAICkhCAAQFJCEAAgKSEIAJBO61crCkEAgKSEIABAUkIQACApIQgAkJQQBABISggCACQlBAEAkhKCAABJCUEAgKSEIABAUkIQACApIQgAkEzrNw03hCAAQFZCEAAgKSEIAJCUEAQASEoIAgAkJQQBAJISggAASQlBAICkhCAAQFJCEAAgKSEIAJBRQwgCAKQlBAEAkhKCAABJCUEAgKSEIABAUkIQACApIQgAkJQQBABISggCACQlBAEAkhKCAABJCUEAgKSEIABAUkIQACApIQgAkJQQBABISggCACQlBAEAkhKCAABJCUEAgKSEIABAUkIQACApIQgAkFCjGoQgAEBSQhAAICkhCACQlBAEAEhKCAIAJCUEAQCSEoIAAEkJQQCApIQgAEBSQhAAICkhCACQUkMIAgBkJQQBAJISggAASQlBAICkhCAAQFJCEAAgKSEIAJCUEAQASEoIAgAkJQQBAJISggAASQlBAIBsGq0/ao1Ka/TAVqvV2mMAMH0HydsgzMhFF10cS5ctPXhCEACA6emEoFPDAABJCUEAgKSEIABAUkIQACClBUIQACCnw4QgAEBOPxaCAABZCUEAgKSEIABARg0hCACQlhAEAEhKCAIAJCUEAQCSEoIAAEkJQQCApIQgAEBSQhAAICkhCACQlBAEAEhKCAIAJCUEAQCSEoIAAEkJQQCApIQgAEBSQhAAICkhCACQlBAEAEhKCAIAJCUEAQCSEoIAAEkJQQCApIQgAEA6jeZ/hSAAQFJCEAAgKSEIAJCUEAQASEoIAgAkJQQBAJISggAASQlBAICkhCAAQFJCEAAgKSEIAJCUEAQASEoIAgAkJQQBAJISggAASQlBAICkhCAAQFJCEAAgKSEIAJCUEAQASEoIAgAkJQQBAJISggAAyTSaQ0MIAgBkJQQBAJISggAASQlBAICkhCAAQFJCEAAgKSEIAJCUEAQASEoIAgAkJQQBAJISggAASQlBAICkhCAAQFJCEAAgKSEIAJCUEAQASEoIAgAkJQQBAJISggAASQlBAICkhCAAQFJCEAAgKSEIAJCUEAQASEoIAgAkJQQBAJISggAASQlBAICkhCAAQFJCEAAgKSEIAJCUEAQASEoIAgAkJQQBAJISggAASQlBAICkhCAAQFJCEAAgKSEIAJCUEAQASEoIAgAkJQQBAJISggAASQlBAICkhCAAQFJCEAAgo4YQBABISwgCACQlBAEAkhKCAABJCUEAgKSEIABAUkIQACApIQgAkJQQBABISggCACQlBAEAkhKCAABJCUEAgKSEIABAUkIQACApIQgAkJQQBABISggCACQlBAEAkhKCAABJCUEAgKSEIABAUkIQACApIQgAkJQQBABISggCACQlBAEAkhKCAABJCUEAgKSEIABAUkIQACApIQgAkJQQBABISggCACQlBAEAkhKCAABJCUEAgKSEIABAUkIQACApIQgAkJQQBABISggCACQlBAEAkhKCAABJCUEAgKSEIABARjUhCACQlhAEAEhKCAIAJCUEAQCSEoIAAEkJQQCApIQgAEBSQhAAICkhCACQlBAEAEhKCAIAZNQQggAAaQlBAICkhCAAQFJCEAAgKSEIAJCUEAQASEoIAgAkJQQBAJISggAASQlBAICkhCAAQFJCEAAgKSEIAJCUEAQASEoIAgAkJQQBAJISggAASQlBAICkhCAAQFJCEAAgKSEIAJCUEAQASEoIAgBkVBOCAABpCUEAgKSEIABAUkIQACApIQgAkJQQBABISggCACQlBAEAkhKCAABJCUEAgKSEIABAUkIQACApIQgAkJQQBABISggCACQlBAEAkhKCAABJCUEAgKSEIABAUkIQACApIQgAkJQQBABISggCACQlBAEAkhKCAABJCUEAgKSEIABAUkIQACApIQgAkJQQBABISggCACQlBAEAkhKCAABJCUEAgKSEIABAUkIQACApIQgAkJQQBABISggCACQlBAEAkhKCAADJ1JpDLer33XdfawoAAAe90n7bto02x+u3LVnSHAEA4OBX2m/zls3N8fqS225rjgAAcPAr7bd1y9bmeP3yyz8bd9xxR/MCAAAHr9J8pf3Wr1/f/KBg/Z577omPfPSj7dkAABysSvOV9hsZGWle7hscGvr91atWx9KlS+OUU06Jww47rDkDAICDQzkS+O53vye+/o2vx+rVq5vTarVa1B5x3CMb5cKCBYfFMcccEy964QvjpJNOipNPPjmOOuqo5oIAABxYyk8H33bbbbFkyZL4zOWXN48Erlu7rjWz1vr6mNpxVQg2ovqnysGBgf449JBDY3BoMOYMzYm+vno1p9L8z0QmnTmpWV9z9ne5C/b+nR5Ym7lP1navS7LrVXI8n/tG+fauBPbBZiZ5ZCuz3NI0z8nev9faPtnQSe60mlXmlq+I2bJlc2zZurX5mcCRkW3NdS0BWEaa450QbP1bgnDHePefE2nOn61ZXnVf3OeumPX6znpdZ7+R++DhObCekwNNks1kCuUdgQk13xT3tl24y9lf9cDZzn3xnJTTpHvdLtzlpI9RNWun2GtNaP7Z3M7t02rx34IDx7oTz76NAAAAAElFTkSuQmCC;" vertex="1" parent="1">
          <mxGeometry x="120" y="134" width="642" height="516" as="geometry" />
        </mxCell>
      </root>
    </mxGraphModel>
  </diagram>
</mxfile>
